<svg width="339" height="62" viewBox="0 0 339 62" fill="none" xmlns="http://www.w3.org/2000/svg">
<path d="M18.18 24.052C18.18 25.588 17.808 26.896 17.064 27.976C16.32 29.056 15.252 29.896 13.86 30.496C12.468 31.072 10.812 31.36 8.892 31.36C7.956 31.36 7.056 31.3 6.192 31.18C5.328 31.084 4.524 30.94 3.78 30.748C3.036 30.556 2.376 30.316 1.8 30.028V26.356C2.76 26.788 3.888 27.184 5.184 27.544C6.48 27.88 7.8 28.048 9.144 28.048C10.296 28.048 11.256 27.892 12.024 27.58C12.792 27.268 13.368 26.836 13.752 26.284C14.136 25.732 14.328 25.084 14.328 24.34C14.328 23.548 14.124 22.888 13.716 22.36C13.332 21.808 12.72 21.304 11.88 20.848C11.064 20.368 9.96 19.864 8.568 19.336C7.608 18.976 6.732 18.58 5.94 18.148C5.172 17.692 4.488 17.164 3.888 16.564C3.312 15.964 2.868 15.268 2.556 14.476C2.244 13.684 2.088 12.76 2.088 11.704C2.088 10.288 2.436 9.076 3.132 8.068C3.852 7.06 4.836 6.292 6.084 5.764C7.332 5.212 8.784 4.936 10.44 4.936C11.832 4.936 13.116 5.08 14.292 5.368C15.492 5.632 16.632 6.004 17.712 6.484L16.488 9.688C15.504 9.28 14.508 8.944 13.5 8.68C12.492 8.416 11.436 8.284 10.332 8.284C9.372 8.284 8.568 8.428 7.92 8.716C7.272 9.004 6.78 9.4 6.444 9.904C6.132 10.408 5.976 10.996 5.976 11.668C5.976 12.46 6.156 13.12 6.516 13.648C6.876 14.176 7.452 14.668 8.244 15.124C9.036 15.556 10.08 16.036 11.376 16.564C12.816 17.116 14.04 17.716 15.048 18.364C16.08 19.012 16.86 19.792 17.388 20.704C17.916 21.592 18.18 22.708 18.18 24.052ZM37.973 24.052C37.973 25.588 37.601 26.896 36.857 27.976C36.113 29.056 35.045 29.896 33.653 30.496C32.261 31.072 30.605 31.36 28.685 31.36C27.749 31.36 26.849 31.3 25.985 31.18C25.121 31.084 24.317 30.94 23.573 30.748C22.829 30.556 22.169 30.316 21.593 30.028V26.356C22.553 26.788 23.681 27.184 24.977 27.544C26.273 27.88 27.593 28.048 28.937 28.048C30.089 28.048 31.049 27.892 31.817 27.58C32.585 27.268 33.161 26.836 33.545 26.284C33.929 25.732 34.121 25.084 34.121 24.34C34.121 23.548 33.917 22.888 33.509 22.36C33.125 21.808 32.513 21.304 31.673 20.848C30.857 20.368 29.753 19.864 28.361 19.336C27.401 18.976 26.525 18.58 25.733 18.148C24.965 17.692 24.281 17.164 23.681 16.564C23.105 15.964 22.661 15.268 22.349 14.476C22.037 13.684 21.881 12.76 21.881 11.704C21.881 10.288 22.229 9.076 22.925 8.068C23.645 7.06 24.629 6.292 25.877 5.764C27.125 5.212 28.577 4.936 30.233 4.936C31.625 4.936 32.909 5.08 34.085 5.368C35.285 5.632 36.425 6.004 37.505 6.484L36.281 9.688C35.297 9.28 34.301 8.944 33.293 8.68C32.285 8.416 31.229 8.284 30.125 8.284C29.165 8.284 28.361 8.428 27.713 8.716C27.065 9.004 26.573 9.4 26.237 9.904C25.925 10.408 25.769 10.996 25.769 11.668C25.769 12.46 25.949 13.12 26.309 13.648C26.669 14.176 27.245 14.668 28.037 15.124C28.829 15.556 29.873 16.036 31.169 16.564C32.609 17.116 33.833 17.716 34.841 18.364C35.873 19.012 36.653 19.792 37.181 20.704C37.709 21.592 37.973 22.708 37.973 24.052ZM51.6459 31H47.7579V8.644H40.0539V5.296H59.3499V8.644H51.6459V31Z" fill="#7718BC"/>
<path d="M2.808 45.12C2.36 45.12 1.94 45.076 1.548 44.988C1.164 44.892 0.832 44.784 0.552 44.664L0.756 44.088C0.932 44.152 1.128 44.22 1.344 44.292C1.568 44.364 1.808 44.424 2.064 44.472C2.328 44.512 2.592 44.532 2.856 44.532C3.352 44.532 3.756 44.436 4.068 44.244C4.38 44.044 4.536 43.752 4.536 43.368C4.536 43.096 4.464 42.876 4.32 42.708C4.184 42.54 3.992 42.396 3.744 42.276C3.496 42.156 3.208 42.04 2.88 41.928C2.408 41.76 2 41.592 1.656 41.424C1.32 41.256 1.06 41.056 0.876 40.824C0.7 40.584 0.612 40.288 0.612 39.936C0.612 39.608 0.696 39.324 0.864 39.084C1.04 38.836 1.3 38.648 1.644 38.52C1.988 38.384 2.42 38.316 2.94 38.316C3.332 38.316 3.704 38.356 4.056 38.436C4.408 38.508 4.676 38.596 4.86 38.7V39.3C4.724 39.236 4.552 39.172 4.344 39.108C4.136 39.044 3.908 38.992 3.66 38.952C3.42 38.912 3.172 38.892 2.916 38.892C2.372 38.892 1.964 38.988 1.692 39.18C1.428 39.364 1.296 39.6 1.296 39.888C1.296 40.136 1.372 40.34 1.524 40.5C1.676 40.66 1.896 40.804 2.184 40.932C2.472 41.052 2.812 41.184 3.204 41.328C3.58 41.456 3.92 41.6 4.224 41.76C4.528 41.92 4.768 42.124 4.944 42.372C5.128 42.612 5.22 42.924 5.22 43.308C5.22 43.66 5.136 43.972 4.968 44.244C4.8 44.516 4.54 44.732 4.188 44.892C3.836 45.044 3.376 45.12 2.808 45.12ZM7.33819 40.74C7.09019 40.74 6.88619 40.7 6.72619 40.62C6.56619 40.54 6.45019 40.44 6.37819 40.32C6.31419 40.192 6.28219 40.056 6.28219 39.912C6.28219 39.808 6.29419 39.7 6.31819 39.588C6.35019 39.476 6.38619 39.384 6.42619 39.312L7.01419 39.408C6.99819 39.456 6.97819 39.516 6.95419 39.588C6.93819 39.66 6.93019 39.732 6.93019 39.804C6.93019 39.916 6.96219 40.008 7.02619 40.08C7.09019 40.144 7.20619 40.176 7.37419 40.176H9.23419V40.74H7.33819ZM7.33819 44.1C7.09019 44.1 6.88619 44.06 6.72619 43.98C6.56619 43.9 6.45019 43.8 6.37819 43.68C6.31419 43.552 6.28219 43.416 6.28219 43.272C6.28219 43.168 6.29419 43.06 6.31819 42.948C6.35019 42.836 6.38619 42.744 6.42619 42.672L7.01419 42.768C6.99819 42.816 6.97819 42.876 6.95419 42.948C6.93819 43.02 6.93019 43.092 6.93019 43.164C6.93019 43.276 6.96219 43.368 7.02619 43.44C7.09019 43.504 7.20619 43.536 7.37419 43.536H9.23419V44.1H7.33819ZM13.3494 45.12C12.4614 45.12 11.8174 44.908 11.4174 44.484C11.0174 44.06 10.8174 43.488 10.8174 42.768V38.424H11.5014V42.756C11.5014 43.332 11.6534 43.772 11.9574 44.076C12.2694 44.38 12.7334 44.532 13.3494 44.532C13.9814 44.532 14.4494 44.38 14.7534 44.076C15.0654 43.772 15.2214 43.332 15.2214 42.756V38.424H15.9054V42.768C15.9054 43.488 15.7014 44.06 15.2934 44.484C14.8934 44.908 14.2454 45.12 13.3494 45.12ZM20.5213 45.12C19.6333 45.12 18.9893 44.908 18.5893 44.484C18.1893 44.06 17.9893 43.488 17.9893 42.768V38.424H18.6733V42.756C18.6733 43.332 18.8253 43.772 19.1293 44.076C19.4413 44.38 19.9053 44.532 20.5213 44.532C21.1533 44.532 21.6213 44.38 21.9253 44.076C22.2373 43.772 22.3933 43.332 22.3933 42.756V38.424H23.0773V42.768C23.0773 43.488 22.8733 44.06 22.4653 44.484C22.0653 44.908 21.4173 45.12 20.5213 45.12ZM29.1812 45V40.476C29.1812 39.948 29.0412 39.556 28.7612 39.3C28.4892 39.036 28.0492 38.904 27.4412 38.904C27.0412 38.904 26.6572 38.956 26.2892 39.06C25.9292 39.156 25.5932 39.292 25.2812 39.468V38.796C25.5052 38.684 25.8092 38.576 26.1932 38.472C26.5772 38.368 27.0052 38.316 27.4772 38.316C27.9252 38.316 28.2932 38.372 28.5812 38.484C28.8692 38.596 29.1012 38.768 29.2772 39C29.4852 39.136 29.6332 39.328 29.7212 39.576C29.8172 39.816 29.8652 40.1 29.8652 40.428V45H29.1812ZM26.8172 45.12C26.1292 45.12 25.6132 44.952 25.2692 44.616C24.9332 44.28 24.7652 43.832 24.7652 43.272C24.7652 42.608 25.0092 42.104 25.4972 41.76C25.9852 41.408 26.7412 41.204 27.7652 41.148L29.3252 41.064V41.652L27.8972 41.736C27.0412 41.784 26.4212 41.928 26.0372 42.168C25.6532 42.4 25.4612 42.764 25.4612 43.26C25.4612 43.7 25.5932 44.024 25.8572 44.232C26.1292 44.44 26.4932 44.544 26.9492 44.544C27.0852 44.544 27.2092 44.536 27.3212 44.52C27.4412 44.496 27.5532 44.468 27.6572 44.436L27.7772 44.976C27.6652 45.024 27.5252 45.06 27.3572 45.084C27.1892 45.108 27.0092 45.12 26.8172 45.12ZM29.2292 39.264L28.8212 38.88C29.0532 38.832 29.2572 38.736 29.4332 38.592C29.6092 38.448 29.6972 38.248 29.6972 37.992H30.3812C30.3812 38.216 30.3292 38.416 30.2252 38.592C30.1212 38.76 29.9812 38.9 29.8052 39.012C29.6372 39.124 29.4452 39.208 29.2292 39.264ZM34.1901 45.12C33.7581 45.12 33.3701 45.044 33.0261 44.892C32.6901 44.732 32.4261 44.492 32.2341 44.172C32.0501 43.844 31.9581 43.428 31.9581 42.924V38.424H32.6421V42.876C32.6421 43.412 32.7901 43.82 33.0861 44.1C33.3821 44.38 33.7981 44.52 34.3341 44.52C34.9741 44.52 35.4741 44.328 35.8341 43.944C36.2021 43.552 36.3861 43.032 36.3861 42.384V38.424H37.0701V45H36.4941L36.4461 43.92H36.3981C36.2141 44.288 35.9381 44.58 35.5701 44.796C35.2101 45.012 34.7501 45.12 34.1901 45.12ZM35.4543 37.368C35.1983 37.368 34.9943 37.332 34.8423 37.26C34.6823 37.188 34.5663 37.092 34.4943 36.972C34.4223 36.844 34.3863 36.708 34.3863 36.564C34.3863 36.46 34.4023 36.352 34.4343 36.24C34.4583 36.12 34.4943 36.024 34.5423 35.952L35.1303 36.048C35.1063 36.088 35.0863 36.148 35.0703 36.228C35.0543 36.3 35.0463 36.368 35.0463 36.432C35.0463 36.552 35.0823 36.648 35.1543 36.72C35.2183 36.792 35.3343 36.828 35.5023 36.828H38.6823V37.368H35.4543ZM41.8026 45.12C40.9146 45.12 40.2706 44.908 39.8706 44.484C39.4706 44.06 39.2706 43.488 39.2706 42.768V38.424H39.9546V42.756C39.9546 43.332 40.1066 43.772 40.4106 44.076C40.7226 44.38 41.1866 44.532 41.8026 44.532C42.4346 44.532 42.9026 44.38 43.2066 44.076C43.5186 43.772 43.6746 43.332 43.6746 42.756V38.424H44.3586V42.768C44.3586 43.488 44.1546 44.06 43.7466 44.484C43.3466 44.908 42.6986 45.12 41.8026 45.12ZM50.4624 45V40.476C50.4624 39.948 50.3224 39.556 50.0424 39.3C49.7704 39.036 49.3304 38.904 48.7224 38.904C48.3224 38.904 47.9384 38.956 47.5704 39.06C47.2104 39.156 46.8744 39.292 46.5624 39.468V38.796C46.7864 38.684 47.0904 38.576 47.4744 38.472C47.8584 38.368 48.2864 38.316 48.7584 38.316C49.2064 38.316 49.5744 38.372 49.8624 38.484C50.1504 38.596 50.3824 38.768 50.5584 39C50.7664 39.136 50.9144 39.328 51.0024 39.576C51.0984 39.816 51.1464 40.1 51.1464 40.428V45H50.4624ZM48.0984 45.12C47.4104 45.12 46.8944 44.952 46.5504 44.616C46.2144 44.28 46.0464 43.832 46.0464 43.272C46.0464 42.608 46.2904 42.104 46.7784 41.76C47.2664 41.408 48.0224 41.204 49.0464 41.148L50.6064 41.064V41.652L49.1784 41.736C48.3224 41.784 47.7024 41.928 47.3184 42.168C46.9344 42.4 46.7424 42.764 46.7424 43.26C46.7424 43.7 46.8744 44.024 47.1384 44.232C47.4104 44.44 47.7744 44.544 48.2304 44.544C48.3664 44.544 48.4904 44.536 48.6024 44.52C48.7224 44.496 48.8344 44.468 48.9384 44.436L49.0584 44.976C48.9464 45.024 48.8064 45.06 48.6384 45.084C48.4704 45.108 48.2904 45.12 48.0984 45.12ZM50.5104 39.264L50.1024 38.88C50.3344 38.832 50.5384 38.736 50.7144 38.592C50.8904 38.448 50.9784 38.248 50.9784 37.992H51.6624C51.6624 38.216 51.6104 38.416 51.5064 38.592C51.4024 38.76 51.2624 38.9 51.0864 39.012C50.9184 39.124 50.7264 39.208 50.5104 39.264ZM55.4713 45.12C55.0393 45.12 54.6513 45.044 54.3073 44.892C53.9713 44.732 53.7073 44.492 53.5153 44.172C53.3313 43.844 53.2393 43.428 53.2393 42.924V38.424H53.9233V42.876C53.9233 43.412 54.0713 43.82 54.3673 44.1C54.6633 44.38 55.0793 44.52 55.6153 44.52C56.2553 44.52 56.7553 44.328 57.1153 43.944C57.4833 43.552 57.6673 43.032 57.6673 42.384V38.424H58.3513V45H57.7753L57.7273 43.92H57.6793C57.4953 44.288 57.2193 44.58 56.8513 44.796C56.4913 45.012 56.0313 45.12 55.4713 45.12ZM57.7315 48.132V46.656C57.7315 46.464 57.6475 46.368 57.4795 46.368C57.4395 46.368 57.3995 46.372 57.3595 46.38C57.3115 46.388 57.2675 46.4 57.2275 46.416L57.1675 45.924C57.2635 45.892 57.3635 45.868 57.4675 45.852C57.5635 45.836 57.6475 45.828 57.7195 45.828C57.9275 45.828 58.0875 45.88 58.1995 45.984C58.3035 46.088 58.3555 46.228 58.3555 46.404V48.132H57.7315ZM62.7838 45.12C62.3518 45.12 61.9638 45.044 61.6198 44.892C61.2838 44.732 61.0198 44.492 60.8278 44.172C60.6438 43.844 60.5518 43.428 60.5518 42.924V38.424H61.2358V42.876C61.2358 43.412 61.3838 43.82 61.6798 44.1C61.9758 44.38 62.3918 44.52 62.9278 44.52C63.5678 44.52 64.0678 44.328 64.4278 43.944C64.7958 43.552 64.9798 43.032 64.9798 42.384V38.424H65.6638V45H65.0878L65.0398 43.92H64.9918C64.8078 44.288 64.5318 44.58 64.1638 44.796C63.8038 45.012 63.3438 45.12 62.7838 45.12ZM67.8043 45V42.588C67.8043 42.092 67.9243 41.732 68.1643 41.508C68.4043 41.284 68.6923 41.132 69.0283 41.052L69.0403 41.016L67.6843 40.488V40.176C67.6843 39.856 67.7843 39.556 67.9843 39.276C68.1923 38.996 68.4883 38.768 68.8723 38.592C69.2643 38.408 69.7283 38.316 70.2643 38.316C70.7523 38.316 71.1883 38.4 71.5723 38.568C71.9643 38.728 72.2763 38.972 72.5083 39.3C72.7403 39.628 72.8563 40.04 72.8563 40.536V45H72.1723V40.632C72.1723 40.032 71.9923 39.596 71.6323 39.324C71.2803 39.044 70.8243 38.904 70.2643 38.904C69.6883 38.904 69.2323 39.032 68.8963 39.288C68.5603 39.544 68.3923 39.856 68.3923 40.224L69.7243 40.86L69.6403 41.328C69.3283 41.344 69.0563 41.452 68.8243 41.652C68.6003 41.844 68.4883 42.152 68.4883 42.576V45H67.8043ZM77.0427 45V40.212C77.0427 39.772 76.9387 39.444 76.7307 39.228C76.5307 39.012 76.1947 38.904 75.7227 38.904C75.4587 38.904 75.1867 38.944 74.9067 39.024C74.6267 39.104 74.3667 39.212 74.1267 39.348V38.7C74.3027 38.612 74.5387 38.528 74.8347 38.448C75.1307 38.36 75.4707 38.316 75.8547 38.316C76.2627 38.316 76.6027 38.38 76.8747 38.508C77.1547 38.636 77.3667 38.832 77.5107 39.096C77.6547 39.352 77.7267 39.68 77.7267 40.08V45H77.0427ZM81.5814 45.12C81.1334 45.12 80.7134 45.076 80.3214 44.988C79.9374 44.892 79.6054 44.784 79.3254 44.664L79.5294 44.088C79.7054 44.152 79.9014 44.22 80.1174 44.292C80.3414 44.364 80.5814 44.424 80.8374 44.472C81.1014 44.512 81.3654 44.532 81.6294 44.532C82.1254 44.532 82.5294 44.436 82.8414 44.244C83.1534 44.044 83.3094 43.752 83.3094 43.368C83.3094 43.096 83.2374 42.876 83.0934 42.708C82.9574 42.54 82.7654 42.396 82.5174 42.276C82.2694 42.156 81.9814 42.04 81.6534 41.928C81.1814 41.76 80.7734 41.592 80.4294 41.424C80.0934 41.256 79.8334 41.056 79.6494 40.824C79.4734 40.584 79.3854 40.288 79.3854 39.936C79.3854 39.608 79.4694 39.324 79.6374 39.084C79.8134 38.836 80.0734 38.648 80.4174 38.52C80.7614 38.384 81.1934 38.316 81.7134 38.316C82.1054 38.316 82.4774 38.356 82.8294 38.436C83.1814 38.508 83.4494 38.596 83.6334 38.7V39.3C83.4974 39.236 83.3254 39.172 83.1174 39.108C82.9094 39.044 82.6814 38.992 82.4334 38.952C82.1934 38.912 81.9454 38.892 81.6894 38.892C81.1454 38.892 80.7374 38.988 80.4654 39.18C80.2014 39.364 80.0694 39.6 80.0694 39.888C80.0694 40.136 80.1454 40.34 80.2974 40.5C80.4494 40.66 80.6694 40.804 80.9574 40.932C81.2454 41.052 81.5854 41.184 81.9774 41.328C82.3534 41.456 82.6934 41.6 82.9974 41.76C83.3014 41.92 83.5414 42.124 83.7174 42.372C83.9014 42.612 83.9934 42.924 83.9934 43.308C83.9934 43.66 83.9094 43.972 83.7414 44.244C83.5734 44.516 83.3134 44.732 82.9614 44.892C82.6094 45.044 82.1494 45.12 81.5814 45.12ZM87.7436 45.12C87.0556 45.12 86.5076 44.952 86.0996 44.616C85.6996 44.272 85.4996 43.74 85.4996 43.02V42.144C85.4996 41.752 85.5596 41.444 85.6796 41.22C85.7996 40.988 85.9396 40.768 86.0996 40.56C86.2676 40.352 86.4036 40.172 86.5076 40.02C86.6116 39.868 86.6636 39.692 86.6636 39.492C86.6636 39.276 86.6076 39.128 86.4956 39.048C86.3836 38.968 86.2556 38.928 86.1116 38.928C85.9836 38.928 85.8516 38.948 85.7156 38.988C85.5876 39.028 85.4796 39.072 85.3916 39.12L85.2356 38.592C85.3636 38.52 85.5156 38.464 85.6916 38.424C85.8756 38.376 86.0476 38.352 86.2076 38.352C86.4396 38.352 86.6356 38.392 86.7956 38.472C86.9636 38.552 87.0916 38.672 87.1796 38.832C87.2676 38.984 87.3116 39.18 87.3116 39.42C87.3116 39.708 87.2516 39.952 87.1316 40.152C87.0196 40.352 86.8836 40.552 86.7236 40.752C86.5636 40.968 86.4316 41.172 86.3276 41.364C86.2316 41.556 86.1836 41.808 86.1836 42.12V42.984C86.1836 43.368 86.2516 43.676 86.3876 43.908C86.5236 44.132 86.7076 44.292 86.9396 44.388C87.1796 44.484 87.4516 44.532 87.7556 44.532C88.2676 44.532 88.6476 44.416 88.8956 44.184C89.1516 43.944 89.2796 43.604 89.2796 43.164V38.424H89.9636V43.2C89.9636 43.808 89.7716 44.28 89.3876 44.616C89.0116 44.952 88.4636 45.12 87.7436 45.12ZM94.1521 45V40.212C94.1521 39.772 94.0481 39.444 93.8401 39.228C93.6401 39.012 93.3041 38.904 92.8321 38.904C92.5681 38.904 92.2961 38.944 92.0161 39.024C91.7361 39.104 91.4761 39.212 91.2361 39.348V38.7C91.4121 38.612 91.6481 38.528 91.9441 38.448C92.2401 38.36 92.5801 38.316 92.9641 38.316C93.3721 38.316 93.7121 38.38 93.9841 38.508C94.2641 38.636 94.4761 38.832 94.6201 39.096C94.7641 39.352 94.8361 39.68 94.8361 40.08V45H94.1521ZM99.3628 45.108C98.7628 45.108 98.2748 45.024 97.8988 44.856C97.5228 44.688 97.2468 44.456 97.0708 44.16C96.8948 43.856 96.8068 43.504 96.8068 43.104C96.8068 42.728 96.8628 42.432 96.9748 42.216C97.0868 41.992 97.2228 41.824 97.3828 41.712C97.5508 41.6 97.7148 41.52 97.8748 41.472V41.424C97.7228 41.368 97.5588 41.288 97.3828 41.184C97.2148 41.08 97.0708 40.928 96.9508 40.728C96.8308 40.52 96.7708 40.248 96.7708 39.912C96.7708 39.616 96.8388 39.352 96.9748 39.12C97.1108 38.88 97.3108 38.692 97.5748 38.556C97.8468 38.412 98.1788 38.34 98.5708 38.34C98.7628 38.34 98.9508 38.356 99.1348 38.388C99.3268 38.412 99.4828 38.448 99.6028 38.496L99.4708 39.048C99.3908 39.016 99.2748 38.988 99.1228 38.964C98.9708 38.94 98.8188 38.928 98.6668 38.928C98.3068 38.928 98.0148 39.016 97.7908 39.192C97.5748 39.368 97.4668 39.632 97.4668 39.984C97.4668 40.304 97.5428 40.552 97.6948 40.728C97.8548 40.896 98.0508 41.016 98.2828 41.088C98.5228 41.152 98.7628 41.184 99.0028 41.184H99.3508V41.7H99.0028C98.5228 41.7 98.1508 41.808 97.8868 42.024C97.6308 42.24 97.5028 42.576 97.5028 43.032C97.5028 43.344 97.5708 43.612 97.7068 43.836C97.8508 44.06 98.0588 44.232 98.3308 44.352C98.6028 44.464 98.9468 44.52 99.3628 44.52C99.7628 44.52 100.099 44.464 100.371 44.352C100.651 44.24 100.863 44.064 101.007 43.824C101.151 43.576 101.223 43.26 101.223 42.876V38.424H101.907V42.804C101.907 43.612 101.691 44.2 101.259 44.568C100.827 44.928 100.195 45.108 99.3628 45.108ZM105.242 45.12C105.058 45.12 104.882 45.088 104.714 45.024C104.546 44.96 104.41 44.852 104.306 44.7C104.21 44.54 104.162 44.332 104.162 44.076V38.424H104.846V43.98C104.846 44.18 104.89 44.324 104.978 44.412C105.074 44.5 105.206 44.544 105.374 44.544C105.454 44.544 105.538 44.536 105.626 44.52C105.722 44.496 105.806 44.468 105.878 44.436L105.986 44.964C105.866 45.02 105.738 45.06 105.602 45.084C105.474 45.108 105.354 45.12 105.242 45.12ZM108.362 45.12C108.178 45.12 108.002 45.088 107.834 45.024C107.666 44.96 107.53 44.852 107.426 44.7C107.33 44.54 107.282 44.332 107.282 44.076V38.424H107.966V43.98C107.966 44.18 108.01 44.324 108.098 44.412C108.194 44.5 108.326 44.544 108.494 44.544C108.574 44.544 108.658 44.536 108.746 44.52C108.842 44.496 108.926 44.468 108.997 44.436L109.105 44.964C108.986 45.02 108.858 45.06 108.722 45.084C108.594 45.108 108.474 45.12 108.362 45.12ZM114.341 45V40.476C114.341 39.948 114.201 39.556 113.921 39.3C113.649 39.036 113.209 38.904 112.601 38.904C112.201 38.904 111.817 38.956 111.449 39.06C111.089 39.156 110.753 39.292 110.441 39.468V38.796C110.665 38.684 110.969 38.576 111.353 38.472C111.737 38.368 112.177 38.316 112.673 38.316C113.065 38.316 113.405 38.364 113.693 38.46C113.989 38.548 114.233 38.68 114.425 38.856C114.625 39.024 114.773 39.24 114.869 39.504C114.973 39.768 115.025 40.076 115.025 40.428V45H114.341ZM112.025 45.12C111.305 45.12 110.773 44.956 110.429 44.628C110.093 44.292 109.925 43.848 109.925 43.296C109.925 42.624 110.161 42.112 110.633 41.76C111.113 41.408 111.877 41.204 112.925 41.148L114.485 41.064V41.652L113.057 41.736C112.185 41.784 111.561 41.928 111.185 42.168C110.809 42.408 110.621 42.776 110.621 43.272C110.621 43.696 110.753 44.016 111.017 44.232C111.289 44.44 111.649 44.544 112.097 44.544C112.241 44.544 112.369 44.536 112.481 44.52C112.601 44.496 112.713 44.468 112.817 44.436L112.937 44.976C112.825 45.024 112.685 45.06 112.517 45.084C112.349 45.108 112.185 45.12 112.025 45.12ZM117.659 40.74C117.411 40.74 117.207 40.7 117.047 40.62C116.887 40.54 116.771 40.44 116.699 40.32C116.635 40.192 116.603 40.056 116.603 39.912C116.603 39.808 116.615 39.7 116.639 39.588C116.671 39.476 116.707 39.384 116.747 39.312L117.335 39.408C117.319 39.456 117.299 39.516 117.275 39.588C117.259 39.66 117.251 39.732 117.251 39.804C117.251 39.916 117.283 40.008 117.347 40.08C117.411 40.144 117.527 40.176 117.695 40.176H119.555V40.74H117.659ZM117.659 44.1C117.411 44.1 117.207 44.06 117.047 43.98C116.887 43.9 116.771 43.8 116.699 43.68C116.635 43.552 116.603 43.416 116.603 43.272C116.603 43.168 116.615 43.06 116.639 42.948C116.671 42.836 116.707 42.744 116.747 42.672L117.335 42.768C117.319 42.816 117.299 42.876 117.275 42.948C117.259 43.02 117.251 43.092 117.251 43.164C117.251 43.276 117.283 43.368 117.347 43.44C117.411 43.504 117.527 43.536 117.695 43.536H119.555V44.1H117.659ZM121.078 45V42.588C121.078 42.092 121.198 41.732 121.438 41.508C121.678 41.284 121.966 41.132 122.302 41.052L122.314 41.016L120.958 40.488V40.176C120.958 39.856 121.058 39.556 121.258 39.276C121.466 38.996 121.762 38.768 122.146 38.592C122.538 38.408 123.002 38.316 123.538 38.316C124.026 38.316 124.462 38.4 124.846 38.568C125.238 38.728 125.55 38.972 125.782 39.3C126.014 39.628 126.13 40.04 126.13 40.536V45H125.446V40.632C125.446 40.032 125.266 39.596 124.906 39.324C124.554 39.044 124.098 38.904 123.538 38.904C122.962 38.904 122.506 39.032 122.17 39.288C121.834 39.544 121.666 39.856 121.666 40.224L122.998 40.86L122.914 41.328C122.602 41.344 122.33 41.452 122.098 41.652C121.874 41.844 121.762 42.152 121.762 42.576V45H121.078ZM130.316 45V40.212C130.316 39.772 130.212 39.444 130.004 39.228C129.804 39.012 129.468 38.904 128.996 38.904C128.732 38.904 128.46 38.944 128.18 39.024C127.9 39.104 127.64 39.212 127.4 39.348V38.7C127.576 38.612 127.812 38.528 128.108 38.448C128.404 38.36 128.744 38.316 129.128 38.316C129.536 38.316 129.876 38.38 130.148 38.508C130.428 38.636 130.64 38.832 130.784 39.096C130.928 39.352 131 39.68 131 40.08V45H130.316ZM134.855 45.12C134.407 45.12 133.987 45.076 133.595 44.988C133.211 44.892 132.879 44.784 132.599 44.664L132.803 44.088C132.979 44.152 133.175 44.22 133.391 44.292C133.615 44.364 133.855 44.424 134.111 44.472C134.375 44.512 134.639 44.532 134.903 44.532C135.399 44.532 135.803 44.436 136.115 44.244C136.427 44.044 136.583 43.752 136.583 43.368C136.583 43.096 136.511 42.876 136.367 42.708C136.231 42.54 136.039 42.396 135.791 42.276C135.543 42.156 135.255 42.04 134.927 41.928C134.455 41.76 134.047 41.592 133.703 41.424C133.367 41.256 133.107 41.056 132.923 40.824C132.747 40.584 132.659 40.288 132.659 39.936C132.659 39.608 132.743 39.324 132.911 39.084C133.087 38.836 133.347 38.648 133.691 38.52C134.035 38.384 134.467 38.316 134.987 38.316C135.379 38.316 135.751 38.356 136.103 38.436C136.455 38.508 136.723 38.596 136.907 38.7V39.3C136.771 39.236 136.599 39.172 136.391 39.108C136.183 39.044 135.955 38.992 135.707 38.952C135.467 38.912 135.219 38.892 134.963 38.892C134.419 38.892 134.011 38.988 133.739 39.18C133.475 39.364 133.343 39.6 133.343 39.888C133.343 40.136 133.419 40.34 133.571 40.5C133.723 40.66 133.943 40.804 134.231 40.932C134.519 41.052 134.859 41.184 135.251 41.328C135.627 41.456 135.967 41.6 136.271 41.76C136.575 41.92 136.815 42.124 136.991 42.372C137.175 42.612 137.267 42.924 137.267 43.308C137.267 43.66 137.183 43.972 137.015 44.244C136.847 44.516 136.587 44.732 136.235 44.892C135.883 45.044 135.423 45.12 134.855 45.12ZM141.065 45.12C140.433 45.12 139.937 44.976 139.577 44.688C139.225 44.4 138.977 43.996 138.833 43.476C138.689 42.948 138.617 42.324 138.617 41.604C138.617 40.788 138.689 40.14 138.833 39.66C138.977 39.18 139.181 38.836 139.445 38.628C139.717 38.42 140.037 38.316 140.405 38.316C140.725 38.316 140.981 38.38 141.173 38.508C141.365 38.628 141.497 38.796 141.569 39.012H141.617C141.697 38.796 141.837 38.628 142.037 38.508C142.237 38.38 142.489 38.316 142.793 38.316C143.281 38.316 143.653 38.448 143.909 38.712C144.165 38.976 144.293 39.38 144.293 39.924V45H143.609V39.924C143.609 39.548 143.529 39.284 143.369 39.132C143.209 38.98 142.985 38.904 142.697 38.904C142.417 38.904 142.209 38.972 142.073 39.108C141.945 39.236 141.857 39.432 141.809 39.696H141.353C141.313 39.408 141.213 39.204 141.053 39.084C140.893 38.964 140.697 38.904 140.465 38.904C140.089 38.904 139.801 39.116 139.601 39.54C139.401 39.956 139.301 40.644 139.301 41.604C139.301 42.236 139.353 42.772 139.457 43.212C139.561 43.644 139.745 43.972 140.009 44.196C140.281 44.42 140.665 44.532 141.161 44.532C141.297 44.532 141.421 44.524 141.533 44.508C141.645 44.484 141.745 44.46 141.833 44.436L141.917 44.976C141.813 45.016 141.681 45.048 141.521 45.072C141.369 45.104 141.217 45.12 141.065 45.12ZM139.252 37.368V37.056L139.852 36.804H144.16V37.368H139.252ZM148.54 45.12C147.94 45.12 147.46 44.98 147.1 44.7C146.748 44.42 146.496 44.028 146.344 43.524C146.2 43.012 146.128 42.424 146.128 41.76C146.128 41.064 146.2 40.492 146.344 40.044C146.488 39.596 146.688 39.248 146.944 39C147.2 38.744 147.504 38.568 147.856 38.472C148.208 38.368 148.588 38.316 148.996 38.316C149.572 38.316 150.056 38.404 150.448 38.58C150.84 38.748 151.132 38.996 151.324 39.324C151.524 39.644 151.624 40.04 151.624 40.512V45H150.952V40.584C150.952 40.056 150.8 39.644 150.496 39.348C150.2 39.052 149.708 38.904 149.02 38.904C148.588 38.904 148.204 38.984 147.868 39.144C147.54 39.296 147.284 39.58 147.1 39.996C146.916 40.404 146.824 40.996 146.824 41.772C146.824 42.3 146.876 42.772 146.98 43.188C147.084 43.604 147.268 43.932 147.532 44.172C147.796 44.412 148.172 44.532 148.66 44.532C148.764 44.532 148.868 44.524 148.972 44.508C149.076 44.492 149.168 44.468 149.248 44.436L149.332 44.988C149.228 45.036 149.104 45.068 148.96 45.084C148.824 45.108 148.684 45.12 148.54 45.12ZM155.948 45.12C155.316 45.12 154.82 44.976 154.46 44.688C154.108 44.4 153.86 43.996 153.716 43.476C153.572 42.948 153.5 42.324 153.5 41.604C153.5 40.788 153.572 40.14 153.716 39.66C153.86 39.18 154.064 38.836 154.328 38.628C154.6 38.42 154.92 38.316 155.288 38.316C155.608 38.316 155.864 38.38 156.056 38.508C156.248 38.628 156.38 38.796 156.452 39.012H156.5C156.58 38.796 156.72 38.628 156.92 38.508C157.12 38.38 157.372 38.316 157.676 38.316C158.164 38.316 158.536 38.448 158.792 38.712C159.048 38.976 159.176 39.38 159.176 39.924V45H158.492V39.924C158.492 39.548 158.412 39.284 158.252 39.132C158.092 38.98 157.868 38.904 157.58 38.904C157.3 38.904 157.092 38.972 156.956 39.108C156.828 39.236 156.74 39.432 156.692 39.696H156.236C156.196 39.408 156.096 39.204 155.936 39.084C155.776 38.964 155.58 38.904 155.348 38.904C154.972 38.904 154.684 39.116 154.484 39.54C154.284 39.956 154.184 40.644 154.184 41.604C154.184 42.236 154.236 42.772 154.34 43.212C154.444 43.644 154.628 43.972 154.892 44.196C155.164 44.42 155.548 44.532 156.044 44.532C156.18 44.532 156.304 44.524 156.416 44.508C156.528 44.484 156.628 44.46 156.716 44.436L156.8 44.976C156.696 45.016 156.564 45.048 156.404 45.072C156.252 45.104 156.1 45.12 155.948 45.12ZM163.375 45V40.212C163.375 39.772 163.271 39.444 163.063 39.228C162.863 39.012 162.527 38.904 162.055 38.904C161.791 38.904 161.519 38.944 161.239 39.024C160.959 39.104 160.699 39.212 160.459 39.348V38.7C160.635 38.612 160.871 38.528 161.167 38.448C161.463 38.36 161.803 38.316 162.187 38.316C162.595 38.316 162.935 38.38 163.207 38.508C163.487 38.636 163.699 38.832 163.843 39.096C163.987 39.352 164.059 39.68 164.059 40.08V45H163.375ZM169.161 45.12C168.609 45.12 168.145 45.008 167.769 44.784C167.393 44.552 167.117 44.24 166.941 43.848H166.893L166.845 45H166.269V38.424H166.953V42.384C166.953 42.8 167.037 43.168 167.205 43.488C167.381 43.808 167.621 44.06 167.925 44.244C168.237 44.428 168.601 44.52 169.017 44.52C169.569 44.52 169.985 44.38 170.265 44.1C170.553 43.82 170.697 43.412 170.697 42.876V38.424H171.381V42.924C171.381 43.428 171.285 43.844 171.093 44.172C170.909 44.492 170.649 44.732 170.313 44.892C169.985 45.044 169.601 45.12 169.161 45.12ZM174.578 45L172.538 38.424H173.234L175.094 44.388H175.262C175.502 44.388 175.726 44.344 175.934 44.256C176.15 44.16 176.346 44.032 176.522 43.872C176.81 43.608 177.026 43.252 177.17 42.804C177.314 42.356 177.386 41.884 177.386 41.388C177.386 40.62 177.222 40.024 176.894 39.6C176.566 39.168 176.098 38.952 175.49 38.952C175.394 38.952 175.29 38.964 175.178 38.988C175.074 39.004 174.994 39.02 174.938 39.036L174.758 38.472C174.886 38.424 175.018 38.396 175.154 38.388C175.298 38.372 175.422 38.364 175.526 38.364C175.926 38.364 176.278 38.428 176.582 38.556C176.886 38.684 177.142 38.864 177.35 39.096C177.606 39.368 177.79 39.704 177.902 40.104C178.014 40.504 178.07 40.944 178.07 41.424C178.07 42.064 177.974 42.632 177.782 43.128C177.598 43.624 177.342 44.02 177.014 44.316C176.79 44.532 176.514 44.7 176.186 44.82C175.866 44.94 175.482 45 175.034 45H174.578ZM181.949 45V40.212C181.949 39.772 181.845 39.444 181.637 39.228C181.437 39.012 181.101 38.904 180.629 38.904C180.365 38.904 180.093 38.944 179.813 39.024C179.533 39.104 179.273 39.212 179.033 39.348V38.7C179.209 38.612 179.445 38.528 179.741 38.448C180.037 38.36 180.377 38.316 180.761 38.316C181.169 38.316 181.509 38.38 181.781 38.508C182.061 38.636 182.273 38.832 182.417 39.096C182.561 39.352 182.633 39.68 182.633 40.08V45H181.949ZM186.956 45.12C186.524 45.12 186.136 45.044 185.792 44.892C185.456 44.732 185.192 44.492 185 44.172C184.816 43.844 184.724 43.428 184.724 42.924V38.424H185.408V42.876C185.408 43.412 185.556 43.82 185.852 44.1C186.148 44.38 186.564 44.52 187.1 44.52C187.74 44.52 188.24 44.328 188.6 43.944C188.968 43.552 189.152 43.032 189.152 42.384V38.424H189.836V45H189.26L189.212 43.92H189.164C188.98 44.288 188.704 44.58 188.336 44.796C187.976 45.012 187.516 45.12 186.956 45.12ZM194.208 45.12C193.76 45.12 193.344 45.08 192.96 45C192.584 44.92 192.264 44.828 192 44.724V41.94H192.648V44.28C192.792 44.344 193.012 44.404 193.308 44.46C193.612 44.516 193.92 44.544 194.232 44.544C194.56 44.544 194.86 44.504 195.132 44.424C195.412 44.344 195.636 44.204 195.804 44.004C195.972 43.796 196.056 43.508 196.056 43.14C196.056 42.86 196.004 42.632 195.9 42.456C195.804 42.28 195.66 42.14 195.468 42.036C195.276 41.924 195.044 41.824 194.772 41.736C194.5 41.648 194.2 41.552 193.872 41.448C193.392 41.288 193 41.14 192.696 41.004C192.4 40.86 192.18 40.696 192.036 40.512C191.892 40.32 191.82 40.08 191.82 39.792C191.82 39.472 191.904 39.204 192.072 38.988C192.24 38.764 192.496 38.596 192.84 38.484C193.184 38.372 193.62 38.316 194.148 38.316C194.684 38.316 195.14 38.364 195.516 38.46C195.9 38.548 196.184 38.636 196.368 38.724V39.36C196.232 39.288 196.044 39.216 195.804 39.144C195.572 39.072 195.308 39.012 195.012 38.964C194.716 38.916 194.404 38.892 194.076 38.892C193.788 38.892 193.524 38.92 193.284 38.976C193.044 39.024 192.852 39.108 192.708 39.228C192.572 39.348 192.504 39.516 192.504 39.732C192.504 39.932 192.576 40.1 192.72 40.236C192.872 40.364 193.084 40.48 193.356 40.584C193.636 40.688 193.968 40.8 194.352 40.92C194.688 41.024 195 41.132 195.288 41.244C195.584 41.356 195.84 41.492 196.056 41.652C196.272 41.804 196.44 42 196.56 42.24C196.68 42.472 196.74 42.768 196.74 43.128C196.74 43.576 196.644 43.948 196.452 44.244C196.26 44.54 195.976 44.76 195.6 44.904C195.224 45.048 194.76 45.12 194.208 45.12ZM195.321 48.132V46.656C195.321 46.464 195.237 46.368 195.069 46.368C195.029 46.368 194.989 46.372 194.949 46.38C194.901 46.388 194.857 46.4 194.817 46.416L194.757 45.924C194.853 45.892 194.953 45.868 195.057 45.852C195.153 45.836 195.237 45.828 195.309 45.828C195.517 45.828 195.677 45.88 195.789 45.984C195.893 46.088 195.945 46.228 195.945 46.404V48.132H195.321ZM200.199 45.12C199.751 45.12 199.331 45.076 198.939 44.988C198.555 44.892 198.223 44.784 197.943 44.664L198.147 44.088C198.323 44.152 198.519 44.22 198.735 44.292C198.959 44.364 199.199 44.424 199.455 44.472C199.719 44.512 199.983 44.532 200.247 44.532C200.743 44.532 201.147 44.436 201.459 44.244C201.771 44.044 201.927 43.752 201.927 43.368C201.927 43.096 201.855 42.876 201.711 42.708C201.575 42.54 201.383 42.396 201.135 42.276C200.887 42.156 200.599 42.04 200.271 41.928C199.799 41.76 199.391 41.592 199.047 41.424C198.711 41.256 198.451 41.056 198.267 40.824C198.091 40.584 198.003 40.288 198.003 39.936C198.003 39.608 198.087 39.324 198.255 39.084C198.431 38.836 198.691 38.648 199.035 38.52C199.379 38.384 199.811 38.316 200.331 38.316C200.723 38.316 201.095 38.356 201.447 38.436C201.799 38.508 202.067 38.596 202.251 38.7V39.3C202.115 39.236 201.943 39.172 201.735 39.108C201.527 39.044 201.299 38.992 201.051 38.952C200.811 38.912 200.563 38.892 200.307 38.892C199.763 38.892 199.355 38.988 199.083 39.18C198.819 39.364 198.687 39.6 198.687 39.888C198.687 40.136 198.763 40.34 198.915 40.5C199.067 40.66 199.287 40.804 199.575 40.932C199.863 41.052 200.203 41.184 200.595 41.328C200.971 41.456 201.311 41.6 201.615 41.76C201.919 41.92 202.159 42.124 202.335 42.372C202.519 42.612 202.611 42.924 202.611 43.308C202.611 43.66 202.527 43.972 202.359 44.244C202.191 44.516 201.931 44.732 201.579 44.892C201.227 45.044 200.767 45.12 200.199 45.12ZM204.117 45V42.588C204.117 42.092 204.237 41.732 204.477 41.508C204.717 41.284 205.005 41.132 205.341 41.052L205.353 41.016L203.997 40.488V40.176C203.997 39.856 204.097 39.556 204.297 39.276C204.505 38.996 204.801 38.768 205.185 38.592C205.577 38.408 206.041 38.316 206.577 38.316C207.065 38.316 207.501 38.4 207.885 38.568C208.277 38.728 208.589 38.972 208.821 39.3C209.053 39.628 209.169 40.04 209.169 40.536V45H208.485V40.632C208.485 40.032 208.305 39.596 207.945 39.324C207.593 39.044 207.137 38.904 206.577 38.904C206.001 38.904 205.545 39.032 205.209 39.288C204.873 39.544 204.705 39.856 204.705 40.224L206.037 40.86L205.953 41.328C205.641 41.344 205.369 41.452 205.137 41.652C204.913 41.844 204.801 42.152 204.801 42.576V45H204.117ZM204.139 37.368V37.056L204.739 36.804H209.047V37.368H204.139ZM212.107 45V41.868H211.207V41.316H212.767V44.424H212.935C213.351 44.424 213.711 44.34 214.015 44.172C214.327 43.996 214.563 43.712 214.723 43.32C214.891 42.92 214.975 42.38 214.975 41.7C214.975 41.02 214.903 40.476 214.759 40.068C214.615 39.66 214.383 39.364 214.063 39.18C213.743 38.996 213.319 38.904 212.791 38.904C212.423 38.904 212.067 38.956 211.723 39.06C211.379 39.164 211.047 39.312 210.727 39.504V38.844C210.959 38.708 211.267 38.588 211.651 38.484C212.035 38.372 212.451 38.316 212.899 38.316C213.579 38.316 214.123 38.444 214.531 38.7C214.939 38.948 215.231 39.324 215.407 39.828C215.591 40.324 215.683 40.952 215.683 41.712C215.683 42.464 215.579 43.084 215.371 43.572C215.171 44.06 214.855 44.42 214.423 44.652C213.999 44.884 213.447 45 212.767 45H212.107ZM218.808 45.12C218.624 45.12 218.448 45.088 218.28 45.024C218.112 44.96 217.976 44.852 217.872 44.7C217.776 44.54 217.728 44.332 217.728 44.076V38.424H218.412V43.98C218.412 44.18 218.456 44.324 218.544 44.412C218.64 44.5 218.772 44.544 218.94 44.544C219.02 44.544 219.104 44.536 219.192 44.52C219.288 44.496 219.372 44.468 219.444 44.436L219.552 44.964C219.432 45.02 219.304 45.06 219.168 45.084C219.04 45.108 218.92 45.12 218.808 45.12ZM224.791 45V40.476C224.791 39.948 224.651 39.556 224.371 39.3C224.099 39.036 223.659 38.904 223.051 38.904C222.651 38.904 222.267 38.956 221.899 39.06C221.539 39.156 221.203 39.292 220.891 39.468V38.796C221.115 38.684 221.419 38.576 221.803 38.472C222.187 38.368 222.615 38.316 223.087 38.316C223.535 38.316 223.903 38.372 224.191 38.484C224.479 38.596 224.711 38.768 224.887 39C225.095 39.136 225.243 39.328 225.331 39.576C225.427 39.816 225.475 40.1 225.475 40.428V45H224.791ZM222.427 45.12C221.739 45.12 221.223 44.952 220.879 44.616C220.543 44.28 220.375 43.832 220.375 43.272C220.375 42.608 220.619 42.104 221.107 41.76C221.595 41.408 222.351 41.204 223.375 41.148L224.935 41.064V41.652L223.507 41.736C222.651 41.784 222.031 41.928 221.647 42.168C221.263 42.4 221.071 42.764 221.071 43.26C221.071 43.7 221.203 44.024 221.467 44.232C221.739 44.44 222.103 44.544 222.559 44.544C222.695 44.544 222.819 44.536 222.931 44.52C223.051 44.496 223.163 44.468 223.267 44.436L223.387 44.976C223.275 45.024 223.135 45.06 222.967 45.084C222.799 45.108 222.619 45.12 222.427 45.12ZM224.839 39.264L224.431 38.88C224.663 38.832 224.867 38.736 225.043 38.592C225.219 38.448 225.307 38.248 225.307 37.992H225.991C225.991 38.216 225.939 38.416 225.835 38.592C225.731 38.76 225.591 38.9 225.415 39.012C225.247 39.124 225.055 39.208 224.839 39.264ZM229.331 45.12C228.883 45.12 228.463 45.076 228.071 44.988C227.687 44.892 227.355 44.784 227.075 44.664L227.279 44.088C227.455 44.152 227.651 44.22 227.867 44.292C228.091 44.364 228.331 44.424 228.587 44.472C228.851 44.512 229.115 44.532 229.379 44.532C229.875 44.532 230.279 44.436 230.591 44.244C230.903 44.044 231.059 43.752 231.059 43.368C231.059 43.096 230.987 42.876 230.843 42.708C230.707 42.54 230.515 42.396 230.267 42.276C230.019 42.156 229.731 42.04 229.403 41.928C228.931 41.76 228.523 41.592 228.179 41.424C227.843 41.256 227.583 41.056 227.399 40.824C227.223 40.584 227.135 40.288 227.135 39.936C227.135 39.608 227.219 39.324 227.387 39.084C227.563 38.836 227.823 38.648 228.167 38.52C228.511 38.384 228.943 38.316 229.463 38.316C229.855 38.316 230.227 38.356 230.579 38.436C230.931 38.508 231.199 38.596 231.383 38.7V39.3C231.247 39.236 231.075 39.172 230.867 39.108C230.659 39.044 230.431 38.992 230.183 38.952C229.943 38.912 229.695 38.892 229.439 38.892C228.895 38.892 228.487 38.988 228.215 39.18C227.951 39.364 227.819 39.6 227.819 39.888C227.819 40.136 227.895 40.34 228.047 40.5C228.199 40.66 228.419 40.804 228.707 40.932C228.995 41.052 229.335 41.184 229.727 41.328C230.103 41.456 230.443 41.6 230.747 41.76C231.051 41.92 231.291 42.124 231.467 42.372C231.651 42.612 231.743 42.924 231.743 43.308C231.743 43.66 231.659 43.972 231.491 44.244C231.323 44.516 231.063 44.732 230.711 44.892C230.359 45.044 229.899 45.12 229.331 45.12ZM226.815 37.368V37.056L227.415 36.804H231.723V37.368H226.815ZM236.322 45.12C235.77 45.12 235.306 45.008 234.93 44.784C234.554 44.552 234.278 44.24 234.102 43.848H234.054L234.006 45H233.43V38.424H234.114V42.384C234.114 42.8 234.198 43.168 234.366 43.488C234.542 43.808 234.782 44.06 235.086 44.244C235.398 44.428 235.762 44.52 236.178 44.52C236.73 44.52 237.146 44.38 237.426 44.1C237.714 43.82 237.858 43.412 237.858 42.876V38.424H238.542V42.924C238.542 43.428 238.446 43.844 238.254 44.172C238.07 44.492 237.81 44.732 237.474 44.892C237.146 45.044 236.762 45.12 236.322 45.12Z" fill="black"/>
</svg>
